<svg width="303" height="63" viewBox="0 0 303 63" fill="none" xmlns="http://www.w3.org/2000/svg">
<path d="M21.824 36.736H10.304V8.256H0V0.255997H32.128V8.256H21.824V36.736Z" fill="white"/>
<path d="M39.717 0.255997H51.237V36.736H39.717V0.255997Z" fill="white"/>
<path d="M61.2355 0.255997H87.7955V7.936H72.7555V14.592H85.4275V21.504H72.7555V28.928H87.7315V36.736H61.2355V0.255997Z" fill="white"/>
<path d="M129.736 36.736H117.64L115.465 27.52C115.379 27.1787 115.23 26.6027 115.016 25.792C114.846 24.9387 114.632 24.32 114.376 23.936C114.12 23.5093 113.758 23.232 113.288 23.104C112.094 23.1467 110.344 23.168 108.04 23.168V36.736H96.5205V0.576C101.683 0.192 106.504 0 110.984 0C115.038 0 118.323 0.341333 120.84 1.024C123.358 1.664 125.235 2.79466 126.472 4.416C127.752 5.99467 128.393 8.17066 128.393 10.944C128.393 13.5467 127.795 15.5947 126.601 17.088C125.406 18.5387 123.486 19.4133 120.84 19.712V20.096C122.334 20.224 123.571 20.7147 124.552 21.568C125.576 22.3787 126.259 23.424 126.601 24.704L129.736 36.736ZM108.04 15.936C108.424 15.9787 109.171 16 110.28 16C113.566 16 115.486 15.7227 116.04 15.168C116.552 14.656 116.808 13.4613 116.808 11.584C116.808 9.83467 116.339 8.64 115.4 8C114.504 7.36 113.011 7.04 110.92 7.04C110.451 7.04 109.491 7.08267 108.04 7.168V15.936Z" fill="white"/>
<path d="M170.702 36.736H158.605L156.43 27.52C156.344 27.1787 156.195 26.6027 155.982 25.792C155.811 24.9387 155.598 24.32 155.342 23.936C155.086 23.5093 154.723 23.232 154.253 23.104C153.059 23.1467 151.31 23.168 149.006 23.168V36.736H137.486V0.576C142.648 0.192 147.47 0 151.95 0C156.003 0 159.288 0.341333 161.805 1.024C164.323 1.664 166.2 2.79466 167.438 4.416C168.717 5.99467 169.357 8.17066 169.357 10.944C169.357 13.5467 168.76 15.5947 167.566 17.088C166.371 18.5387 164.451 19.4133 161.805 19.712V20.096C163.299 20.224 164.536 20.7147 165.518 21.568C166.542 22.3787 167.224 23.424 167.566 24.704L170.702 36.736ZM149.006 15.936C149.39 15.9787 150.136 16 151.245 16C154.531 16 156.451 15.7227 157.006 15.168C157.518 14.656 157.773 13.4613 157.773 11.584C157.773 9.83467 157.304 8.64 156.366 8C155.47 7.36 153.976 7.04 151.885 7.04C151.416 7.04 150.456 7.08267 149.006 7.168V15.936Z" fill="white"/>
<path d="M199.57 28.736H188.947L187.027 36.736H175.251L187.027 0.255997H202.066L213.331 36.736H201.49L199.57 28.736ZM194.195 8.128L190.419 21.632H198.035L194.451 8.128H194.195Z" fill="white"/>
<path d="M222.712 27.176C223.736 27.688 224.76 28.504 225.784 29.624C226.84 30.744 227.608 31.864 228.088 32.984L216.904 61.928L215.128 62.504C214.488 62.184 213.768 61.784 212.968 61.304C212.168 60.792 211.4 60.248 210.664 59.672C209.96 59.064 209.368 58.472 208.888 57.896L205.672 42.536L201.208 29.288L203.176 27.176C204.104 27.336 205.208 27.704 206.488 28.28C207.768 28.856 208.808 29.56 209.608 30.392L211.096 41.816L214.264 56.264L219.784 39.944L219.832 28.088L222.712 27.176Z" fill="#92B621"/>
<path d="M240.28 61.832L237.496 62.504C236.664 62.088 235.816 61.528 234.952 60.824C234.088 60.088 233.384 59.208 232.84 58.184L235.192 45.608L234.616 28.136L236.008 27.176C236.36 27.24 236.84 27.416 237.448 27.704C238.088 27.992 238.712 28.312 239.32 28.664C239.928 29.016 240.376 29.352 240.664 29.672L240.232 46.232L240.28 61.832Z" fill="#92B621"/>
<path d="M268.222 27.176C269.246 27.688 270.27 28.504 271.294 29.624C272.35 30.744 273.118 31.864 273.598 32.984L262.414 61.928L260.638 62.504C259.998 62.184 259.278 61.784 258.478 61.304C257.678 60.792 256.91 60.248 256.174 59.672C255.47 59.064 254.878 58.472 254.398 57.896L251.182 42.536L246.718 29.288L248.686 27.176C249.614 27.336 250.718 27.704 251.998 28.28C253.278 28.856 254.318 29.56 255.118 30.392L256.606 41.816L259.774 56.264L265.294 39.944L265.342 28.088L268.222 27.176Z" fill="#92B621"/>
<path d="M298.255 45.896L302.719 60.872L300.271 62.504C299.375 62.344 298.415 61.992 297.391 61.448C296.367 60.904 295.439 60.216 294.607 59.384L293.887 52.328L282.847 52.28L279.967 61.736H277.135C276.463 61.096 275.855 60.344 275.311 59.48C274.767 58.584 274.335 57.56 274.015 56.408L279.727 45.56L284.143 33.272L279.103 33.608C278.655 32.84 278.399 31.944 278.335 30.92C278.303 29.896 278.399 28.984 278.623 28.184H288.463C289.071 28.504 289.743 28.968 290.479 29.576C291.247 30.152 291.983 30.808 292.687 31.544C293.423 32.248 294.047 32.984 294.559 33.752L298.255 45.896ZM284.431 47.24L293.311 47.144L293.263 46.616L289.087 33.56L284.431 47.24Z" fill="#92B621"/>
</svg>
