<svg xmlns="http://www.w3.org/2000/svg" version="1.1" xmlns:xlink="http://www.w3.org/1999/xlink" xmlns:svgjs="http://svgjs.dev/svgjs" width="1440" height="800" preserveAspectRatio="none" viewBox="0 0 1440 800"><g mask="url(&quot;#SvgjsMask2825&quot;)" fill="none"><use xlink:href="#SvgjsG2835" transform="translate(0, 0)" fill="rgba(146, 182, 33, 0.43)"></use><use xlink:href="#SvgjsG2835" transform="translate(1088, 0)" fill="rgba(24, 150, 136, 0.65)"></use></g><defs><mask id="SvgjsMask2825"><rect width="1440" height="800" fill="#ffffff"></rect></mask><g id="SvgjsG2826"><path d="M3.474 10.969C3.474 7.665 8.077 0.361 8.077 0.361s4.602 7.305 4.602 10.608c0 2.247-1.506 4.771-4.602 4.771-3.095 0-4.603-2.524-4.603-4.771z" fill-rule="evenodd"></path></g><g id="SvgjsG2827"><path d="M2.524 8.637H0.014V7.308h2.51v1.329zM3.656 4.576L1.884 2.804l0.935-0.935 1.772 1.772-0.935 0.935z m0 6.817l0.935 0.935-1.772 1.773-0.934-0.936 1.771-1.772z m4.997-8.884h-1.33V-0.002h1.33v2.511z m-1.33 10.952h1.33v2.51h-1.33v-2.509zM12.344 4.576l-0.96-0.935 1.796-1.772 0.935 0.935-1.772 1.772z m0 6.792l1.771 1.797-0.935 0.936-1.771-1.774 0.936-0.96z m3.643-4.06v1.329h-2.51V7.308h2.509z"></path><path d="M3.702 7.984a4.184 4.184 0 1 0 8.368 0 4.184 4.184 0 1 0-8.368 0"></path></g><g id="SvgjsG2828"><path d="M11.221 11.657c-2.056 2.056-5.389 2.055-7.444 0-2.056-2.056-2.056-5.389 0-7.444 0.976-0.977 2.617-2.176 5.214-2.176 4.749 0 6.224-1.252 6.224-1.252 0 5.707-1.938 8.816-3.994 10.872z"></path><path d="M3.223 11.626L2.552 10.224l6.437-4.363z"></path><path d="M8.989 5.861l1.15 1.15-8.203 8.203-1.151-1.15z"></path></g><g id="SvgjsG2829"><path d="M-0.009 12.124L8 3.609l8.009 8.515z"></path><path d="M1.843 6.545L8 0l6.157 6.545z m4.761 0.502h2.792v8.955H6.604z"></path></g><g id="SvgjsG2830"><path d="M14.159 8.927V5.732c0-0.453 0.371-0.822 0.828-0.822a0.822 0.822 0 0 1 0.821 0.822V10.107c0 0.605-0.218 1.189-0.608 1.646L12.472 14.65c-0.271 0.255-0.337 0.481-0.337 0.823V16h-2.97l-0.003-1.255c0-0.478-0.039-1.117 0.559-1.743l3.462-3.476a0.654 0.654 0 0 1 0.456-0.184 0.657 0.657 0 0 1 0.657 0.655c0 0.156-0.055 0.308-0.156 0.427l-1.67 1.789c-0.108 0.127-0.291 0.366-0.382 0.659-0.049 0.152-0.063 0.301-0.066 0.47h0.537c0.002-0.121 0.011-0.218 0.04-0.308 0.053-0.169 0.157-0.321 0.237-0.419l1.694-1.86c0.213-0.215 0.33-0.493 0.33-0.786 0-0.439-0.264-0.843-0.7-1.042z m-12.51 0V5.732c0-0.453-0.371-0.822-0.827-0.822A0.822 0.822 0 0 0 0 5.732V10.107c0 0.605 0.218 1.189 0.608 1.646l2.729 2.897c0.27 0.255 0.337 0.481 0.337 0.822V16h2.969l0.003-1.255c0-0.478 0.039-1.117-0.559-1.743L2.626 9.526a0.654 0.654 0 0 0-0.457-0.184 0.657 0.657 0 0 0-0.5 1.083l1.669 1.788c0.108 0.127 0.291 0.366 0.382 0.659 0.049 0.152 0.063 0.301 0.066 0.471h-0.537c-0.002-0.121-0.011-0.219-0.04-0.309-0.053-0.169-0.157-0.321-0.236-0.418L1.278 10.755c-0.213-0.215-0.33-0.493-0.33-0.786 0-0.439 0.264-0.843 0.701-1.042z m6.568-7.512a0.705 0.705 0 0 0 0-1.41 0.705 0.705 0 0 0 0 1.41z m-3.825 0.004c-0.395 0-0.715-0.317-0.715-0.71 0-0.392 0.32-0.709 0.715-0.709s0.716 0.317 0.716 0.709c0 0.393-0.321 0.71-0.716 0.71z"></path><path d="M11.225 3.646a0.494 0.494 0 1 0 0.988 0 0.494 0.494 0 1 0-0.988 0"></path><path d="M12.435 4.384h-1.334c-0.006 0-0.446-0.04-0.446-0.04l-0.559-1.947c-0.225-0.784-0.883-0.76-0.882-0.76h-1.808s-0.657-0.024-0.882 0.76l-0.276 0.959-0.275-0.959c-0.226-0.784-0.882-0.76-0.881-0.76H3.693s-0.658-0.024-0.883 0.76l-0.563 1.962c-0.053 0.184 0.047 0.323 0.208 0.369 0.16 0.046 0.324-0.035 0.365-0.181l0.549-1.913 0.267 0L2.835 5.946h0.708v2.352c0 0.194 0.156 0.352 0.35 0.351 0.194 0 0.352-0.158 0.352-0.351v-2.352h0.297v2.352c0 0.194 0.156 0.352 0.35 0.351a0.352 0.352 0 0 0 0.352-0.351v-2.352h0.696l-0.793-3.312 0.266 0.001 0.543 1.892c0.009 0.032 0.023 0.062 0.042 0.087 0.053 0.08 0.146 0.125 0.249 0.122 0.103 0.003 0.195-0.041 0.249-0.12 0.022-0.028 0.037-0.061 0.046-0.098l0.54-1.884 0.246 0v5.595a0.415 0.415 0 0 0 0.415 0.414 0.413 0.413 0 0 0 0.413-0.414V5.046h0.306v3.183a0.413 0.413 0 0 0 0.413 0.414 0.415 0.415 0 0 0 0.417-0.414v-5.595l0.267 0 0.525 1.913c0.028 0.094 0.107 0.156 0.202 0.18 0.004 0.001 0.006 0.003 0.009 0.004 0.083 0.019 0.469 0.128 0.753 0.209v3.47a0.291 0.291 0 0 0 0.581 0V6.676h0.228v1.734c0 0.16 0.13 0.29 0.29 0.29s0.292-0.13 0.292-0.29v-3.242h0.223v1.098c0 0.12 0.098 0.218 0.217 0.218 0.119 0 0.214-0.097 0.214-0.218v-1.249c0-0.35-0.308-0.634-0.658-0.634z"></path></g><g id="SvgjsG2831"><path d="M3.898 0s0.232 4.58 4.246 4.192S8.597 0.364 3.898 0m4.203 14.894a2.324 2.324 0 0 1-1.902 0.977c-0.64 0-1.267-0.3-1.689-0.721-0.864-0.943-1.985-3.051-1.986-3.052C1.897 10.822 1.56 9.837 1.56 8.839c0-2.126 1.72-3.968 3.848-3.968 1.05 0 1.996 0.42 2.692 1.099a3.835 3.835 0 0 1 2.69-1.099c2.129 0 3.848 1.842 3.849 3.967 0 0.997-0.334 1.983-0.964 3.259 0 0-1.12 2.108-1.984 3.051-0.423 0.422-1.049 0.722-1.689 0.722a2.321 2.321 0 0 1-1.899-0.977" fill-rule="evenodd"></path></g><g id="SvgjsG2832"><path d="M7.409 15.987C7.482 13.521 6.141 12.591 4.505 11.978c-0.544 2.109 0.956 3.865 2.904 4.009m0.37-11.013c1.043-2.235 0.179-3.624-1.085-4.834-1.327 1.724-0.644 3.93 1.085 4.834m0.589 6.218c-0.072-2.466 1.268-3.398 2.905-4.009 0.542 2.109-0.957 3.865-2.905 4.009m0 3.801c-0.072-2.465 1.268-3.395 2.905-4.008 0.542 2.108-0.957 3.865-2.905 4.008m0-7.598c-0.072-2.466 1.268-3.398 2.905-4.011 0.542 2.111-0.957 3.865-2.905 4.011M7.409 12.185C7.482 9.72 6.141 8.787 4.505 8.177c-0.544 2.109 0.956 3.865 2.904 4.009m0-3.8C7.482 5.919 6.141 4.987 4.505 4.373c-0.544 2.111 0.956 3.866 2.904 4.013" fill-rule="evenodd"></path></g><g id="SvgjsG2833"><path d="M1.28 6.244l1.052 0.608 0.281 0.163-0.821 1.419a0.83 0.83 0 0 0-0.114 0.414c0 0.139 0.036 0.277 0.11 0.402 0 0 0.718 1.25 1.305 2.261 0.043-0.142 0.096-0.281 0.171-0.414L4.871 8.32l0.277 0.16 1.056 0.612-1.642-2.845L1.28 6.244z" fill-rule="evenodd"></path><path d="M4.42 10.222l-0.665 1.149a0.949 0.949 0 0 0-0.135 0.494 0.96 0.96 0 0 0 0.977 0.969H7.84V10.222H4.42zM13.049 2.048l-1.054 0.608-0.279 0.164-0.818-1.423a0.804 0.804 0 0 0-0.704-0.412h-2.614c0.103 0.107 0.196 0.222 0.271 0.355l1.605 2.777-0.281 0.164-1.056 0.608h3.28L13.049 2.048z" fill-rule="evenodd"></path><path d="M8.036 2.773L7.371 1.625A1.019 1.019 0 0 0 7.012 1.262 1.031 1.031 0 0 0 6.524 1.127a0.969 0.969 0 0 0-0.835 0.498l-1.627 2.809 2.263 1.301c0.244-0.423 1.561-2.702 1.707-2.962m2.699 11.561v-1.541l1.635 0.003a0.811 0.811 0 0 0 0.418-0.113 0.775 0.775 0 0 0 0.302-0.295l1.303-2.258c-0.142 0.028-0.29 0.057-0.439 0.057H10.734v-0.324l0.004-1.218-1.646 2.845 1.639 2.844z" fill-rule="evenodd"></path><path d="M12.608 9.628h1.326a0.988 0.988 0 0 0 0.854-0.485 0.978 0.978 0 0 0-0.008-0.972l-1.621-2.813-2.261 1.305 1.71 2.965" fill-rule="evenodd"></path></g><g id="SvgjsG2834"><path d="M12.393 6.969a3.464 3.464 0 1 0 0 6.927 3.464 3.464 0 0 0 0-6.927z m0 5.284a1.82 1.82 0 1 1 0-3.639 1.82 1.82 0 0 1 0 3.639zM2.352 10.017a1.937 1.937 0 1 0 0 3.874 1.937 1.937 0 0 0 0-3.874z m-0.001 2.919a0.981 0.981 0 1 1 0-1.961 0.981 0.981 0 0 1 0 1.961z" fill-rule="evenodd"></path><path d="M12.393 5.997c-0.28 0-0.555 0.026-0.821 0.076-0.091-1.511-0.535-1.848-0.667-2.311-0.045-0.163 0.093-0.482 0.093-0.783 0-0.059-0.017-0.787-0.64-0.787-0.598 0-0.745 0.452-0.745 0.452V3.625c0 0.084 0.073 0.153 0.165 0.153h0.216l-0.666 1.34-1.026 0.808-0.292-0.34-3.722 0.862V2.192H3.873v4.353l-0.034 0.007-3.411 0.175V9.048l0.459 1.139a2.284 2.284 0 0 1 1.465-0.53 2.295 2.295 0 0 1 1.918 1.037h4.31a3.695 3.695 0 0 1-0.01-0.261c0-2.108 1.715-3.823 3.823-3.823 0.8 0 1.545 0.248 2.159 0.671l0.351-0.505a4.415 4.415 0 0 0-2.51-0.778z" fill-rule="evenodd"></path></g><g id="SvgjsG2835"><use xlink:href="#SvgjsG2826" transform="translate(0, 0) scale(1.7)" fill="rgba(146, 182, 33, 0.43)"></use><use xlink:href="#SvgjsG2827" transform="translate(0, 108.8) scale(1.7)" fill="rgba(21, 53, 46, 0.74)"></use><use xlink:href="#SvgjsG2828" transform="translate(0, 217.6) scale(1.7)" fill="rgba(146, 182, 33, 0.43)"></use><use xlink:href="#SvgjsG2829" transform="translate(0, 326.4) scale(1.7)" fill="rgba(21, 53, 46, 0.74)"></use><use xlink:href="#SvgjsG2830" transform="translate(0, 435.2) scale(1.7)" fill="rgba(146, 182, 33, 0.43)"></use><use xlink:href="#SvgjsG2831" transform="translate(0, 544) scale(1.7)" fill="rgba(21, 53, 46, 0.74)"></use><use xlink:href="#SvgjsG2832" transform="translate(0, 652.8) scale(1.7)" fill="rgba(24, 150, 136, 0.65)"></use><use xlink:href="#SvgjsG2833" transform="translate(0, 761.6) scale(1.7)" fill="rgba(146, 182, 33, 0.43)"></use><use xlink:href="#SvgjsG2827" transform="translate(108.8, 0) scale(1.7)" fill="rgba(146, 182, 33, 0.43)"></use><use xlink:href="#SvgjsG2828" transform="translate(108.8, 108.8) scale(1.7)" fill="rgba(24, 150, 136, 0.65)"></use><use xlink:href="#SvgjsG2829" transform="translate(108.8, 217.6) scale(1.7)" fill="rgba(146, 182, 33, 0.43)"></use><use xlink:href="#SvgjsG2830" transform="translate(108.8, 326.4) scale(1.7)" fill="rgba(24, 150, 136, 0.65)"></use><use xlink:href="#SvgjsG2831" transform="translate(108.8, 435.2) scale(1.7)" fill="rgba(21, 53, 46, 0.74)"></use><use xlink:href="#SvgjsG2832" transform="translate(108.8, 544) scale(1.7)" fill="rgba(21, 53, 46, 0.74)"></use><use xlink:href="#SvgjsG2833" transform="translate(108.8, 652.8) scale(1.7)" fill="rgba(24, 150, 136, 0.65)"></use><use xlink:href="#SvgjsG2834" transform="translate(108.8, 761.6) scale(1.7)" fill="rgba(24, 150, 136, 0.65)"></use><use xlink:href="#SvgjsG2828" transform="translate(217.6, 0) scale(1.7)" fill="rgba(146, 182, 33, 0.43)"></use><use xlink:href="#SvgjsG2829" transform="translate(217.6, 108.8) scale(1.7)" fill="rgba(21, 53, 46, 0.74)"></use><use xlink:href="#SvgjsG2830" transform="translate(217.6, 217.6) scale(1.7)" fill="rgba(146, 182, 33, 0.43)"></use><use xlink:href="#SvgjsG2831" transform="translate(217.6, 326.4) scale(1.7)" fill="rgba(146, 182, 33, 0.43)"></use><use xlink:href="#SvgjsG2832" transform="translate(217.6, 435.2) scale(1.7)" fill="rgba(24, 150, 136, 0.65)"></use><use xlink:href="#SvgjsG2833" transform="translate(217.6, 544) scale(1.7)" fill="rgba(21, 53, 46, 0.74)"></use><use xlink:href="#SvgjsG2834" transform="translate(217.6, 652.8) scale(1.7)" fill="rgba(21, 53, 46, 0.74)"></use><use xlink:href="#SvgjsG2826" transform="translate(217.6, 761.6) scale(1.7)" fill="rgba(21, 53, 46, 0.74)"></use><use xlink:href="#SvgjsG2829" transform="translate(326.4, 0) scale(1.7)" fill="rgba(24, 150, 136, 0.65)"></use><use xlink:href="#SvgjsG2830" transform="translate(326.4, 108.8) scale(1.7)" fill="rgba(24, 150, 136, 0.65)"></use><use xlink:href="#SvgjsG2831" transform="translate(326.4, 217.6) scale(1.7)" fill="rgba(24, 150, 136, 0.65)"></use><use xlink:href="#SvgjsG2832" transform="translate(326.4, 326.4) scale(1.7)" fill="rgba(146, 182, 33, 0.43)"></use><use xlink:href="#SvgjsG2833" transform="translate(326.4, 435.2) scale(1.7)" fill="rgba(21, 53, 46, 0.74)"></use><use xlink:href="#SvgjsG2834" transform="translate(326.4, 544) scale(1.7)" fill="rgba(24, 150, 136, 0.65)"></use><use xlink:href="#SvgjsG2826" transform="translate(326.4, 652.8) scale(1.7)" fill="rgba(24, 150, 136, 0.65)"></use><use xlink:href="#SvgjsG2827" transform="translate(326.4, 761.6) scale(1.7)" fill="rgba(146, 182, 33, 0.43)"></use><use xlink:href="#SvgjsG2830" transform="translate(435.2, 0) scale(1.7)" fill="rgba(146, 182, 33, 0.43)"></use><use xlink:href="#SvgjsG2831" transform="translate(435.2, 108.8) scale(1.7)" fill="rgba(24, 150, 136, 0.65)"></use><use xlink:href="#SvgjsG2832" transform="translate(435.2, 217.6) scale(1.7)" fill="rgba(21, 53, 46, 0.74)"></use><use xlink:href="#SvgjsG2833" transform="translate(435.2, 326.4) scale(1.7)" fill="rgba(24, 150, 136, 0.65)"></use><use xlink:href="#SvgjsG2834" transform="translate(435.2, 435.2) scale(1.7)" fill="rgba(146, 182, 33, 0.43)"></use><use xlink:href="#SvgjsG2826" transform="translate(435.2, 544) scale(1.7)" fill="rgba(24, 150, 136, 0.65)"></use><use xlink:href="#SvgjsG2827" transform="translate(435.2, 652.8) scale(1.7)" fill="rgba(21, 53, 46, 0.74)"></use><use xlink:href="#SvgjsG2828" transform="translate(435.2, 761.6) scale(1.7)" fill="rgba(146, 182, 33, 0.43)"></use><use xlink:href="#SvgjsG2831" transform="translate(544, 0) scale(1.7)" fill="rgba(24, 150, 136, 0.65)"></use><use xlink:href="#SvgjsG2832" transform="translate(544, 108.8) scale(1.7)" fill="rgba(21, 53, 46, 0.74)"></use><use xlink:href="#SvgjsG2833" transform="translate(544, 217.6) scale(1.7)" fill="rgba(146, 182, 33, 0.43)"></use><use xlink:href="#SvgjsG2834" transform="translate(544, 326.4) scale(1.7)" fill="rgba(146, 182, 33, 0.43)"></use><use xlink:href="#SvgjsG2826" transform="translate(544, 435.2) scale(1.7)" fill="rgba(146, 182, 33, 0.43)"></use><use xlink:href="#SvgjsG2827" transform="translate(544, 544) scale(1.7)" fill="rgba(146, 182, 33, 0.43)"></use><use xlink:href="#SvgjsG2828" transform="translate(544, 652.8) scale(1.7)" fill="rgba(21, 53, 46, 0.74)"></use><use xlink:href="#SvgjsG2829" transform="translate(544, 761.6) scale(1.7)" fill="rgba(146, 182, 33, 0.43)"></use><use xlink:href="#SvgjsG2832" transform="translate(652.8, 0) scale(1.7)" fill="rgba(21, 53, 46, 0.74)"></use><use xlink:href="#SvgjsG2833" transform="translate(652.8, 108.8) scale(1.7)" fill="rgba(24, 150, 136, 0.65)"></use><use xlink:href="#SvgjsG2834" transform="translate(652.8, 217.6) scale(1.7)" fill="rgba(21, 53, 46, 0.74)"></use><use xlink:href="#SvgjsG2826" transform="translate(652.8, 326.4) scale(1.7)" fill="rgba(24, 150, 136, 0.65)"></use><use xlink:href="#SvgjsG2827" transform="translate(652.8, 435.2) scale(1.7)" fill="rgba(21, 53, 46, 0.74)"></use><use xlink:href="#SvgjsG2828" transform="translate(652.8, 544) scale(1.7)" fill="rgba(24, 150, 136, 0.65)"></use><use xlink:href="#SvgjsG2829" transform="translate(652.8, 652.8) scale(1.7)" fill="rgba(21, 53, 46, 0.74)"></use><use xlink:href="#SvgjsG2830" transform="translate(652.8, 761.6) scale(1.7)" fill="rgba(24, 150, 136, 0.65)"></use><use xlink:href="#SvgjsG2833" transform="translate(761.6, 0) scale(1.7)" fill="rgba(21, 53, 46, 0.74)"></use><use xlink:href="#SvgjsG2834" transform="translate(761.6, 108.8) scale(1.7)" fill="rgba(21, 53, 46, 0.74)"></use><use xlink:href="#SvgjsG2826" transform="translate(761.6, 217.6) scale(1.7)" fill="rgba(146, 182, 33, 0.43)"></use><use xlink:href="#SvgjsG2827" transform="translate(761.6, 326.4) scale(1.7)" fill="rgba(146, 182, 33, 0.43)"></use><use xlink:href="#SvgjsG2828" transform="translate(761.6, 435.2) scale(1.7)" fill="rgba(21, 53, 46, 0.74)"></use><use xlink:href="#SvgjsG2829" transform="translate(761.6, 544) scale(1.7)" fill="rgba(146, 182, 33, 0.43)"></use><use xlink:href="#SvgjsG2830" transform="translate(761.6, 652.8) scale(1.7)" fill="rgba(21, 53, 46, 0.74)"></use><use xlink:href="#SvgjsG2831" transform="translate(761.6, 761.6) scale(1.7)" fill="rgba(21, 53, 46, 0.74)"></use><use xlink:href="#SvgjsG2834" transform="translate(870.4, 0) scale(1.7)" fill="rgba(24, 150, 136, 0.65)"></use><use xlink:href="#SvgjsG2826" transform="translate(870.4, 108.8) scale(1.7)" fill="rgba(21, 53, 46, 0.74)"></use><use xlink:href="#SvgjsG2827" transform="translate(870.4, 217.6) scale(1.7)" fill="rgba(146, 182, 33, 0.43)"></use><use xlink:href="#SvgjsG2828" transform="translate(870.4, 326.4) scale(1.7)" fill="rgba(146, 182, 33, 0.43)"></use><use xlink:href="#SvgjsG2829" transform="translate(870.4, 435.2) scale(1.7)" fill="rgba(146, 182, 33, 0.43)"></use><use xlink:href="#SvgjsG2830" transform="translate(870.4, 544) scale(1.7)" fill="rgba(146, 182, 33, 0.43)"></use><use xlink:href="#SvgjsG2831" transform="translate(870.4, 652.8) scale(1.7)" fill="rgba(146, 182, 33, 0.43)"></use><use xlink:href="#SvgjsG2832" transform="translate(870.4, 761.6) scale(1.7)" fill="rgba(146, 182, 33, 0.43)"></use><use xlink:href="#SvgjsG2826" transform="translate(979.1999999999999, 0) scale(1.7)" fill="rgba(146, 182, 33, 0.43)"></use><use xlink:href="#SvgjsG2827" transform="translate(979.1999999999999, 108.8) scale(1.7)" fill="rgba(21, 53, 46, 0.74)"></use><use xlink:href="#SvgjsG2828" transform="translate(979.1999999999999, 217.6) scale(1.7)" fill="rgba(21, 53, 46, 0.74)"></use><use xlink:href="#SvgjsG2829" transform="translate(979.1999999999999, 326.4) scale(1.7)" fill="rgba(146, 182, 33, 0.43)"></use><use xlink:href="#SvgjsG2830" transform="translate(979.1999999999999, 435.2) scale(1.7)" fill="rgba(146, 182, 33, 0.43)"></use><use xlink:href="#SvgjsG2831" transform="translate(979.1999999999999, 544) scale(1.7)" fill="rgba(24, 150, 136, 0.65)"></use><use xlink:href="#SvgjsG2832" transform="translate(979.1999999999999, 652.8) scale(1.7)" fill="rgba(146, 182, 33, 0.43)"></use><use xlink:href="#SvgjsG2833" transform="translate(979.1999999999999, 761.6) scale(1.7)" fill="rgba(21, 53, 46, 0.74)"></use></g></defs></svg>